<mxfile host="app.diagrams.net" modified="2023-07-03T14:13:02.299Z" agent="Mozilla/5.0 (Windows NT 10.0; Win64; x64) AppleWebKit/537.36 (KHTML, like Gecko) Chrome/114.0.0.0 Safari/537.36" version="21.5.2" etag="uqzHIHHD7FbAGXk9rKOj" type="github">
  <diagram name="Page-1" id="ELU8Vi3LU_fu_TiKjk9d">
    <mxGraphModel>
      <root>
        <mxCell id="0" />
        <mxCell id="1" parent="0" />
      </root>
    </mxGraphModel>
  </diagram>
</mxfile>
